# This file uses centimeters as units for non-parametric coordinates.

mtllib hus02_winning.mtl
g default
v -208.478258 58.979591 84.396468
v -203.943311 58.979591 84.396468
v -208.478258 56.220001 84.396468
v -203.943311 56.220001 84.396468
vt 0.000000 0.000000
vt 1.000000 0.000000
vt 0.000000 1.000000
vt 1.000000 1.000000
vn 0.000000 0.000000 -1.000000
vn 0.000000 0.000000 -1.000000
vn 0.000000 0.000000 -1.000000
vn 0.000000 0.000000 -1.000000
vn 0.000000 0.000000 -1.000000
vn 0.000000 0.000000 -1.000000
s off
g pPlane1
usemtl initialShadingGroup1
f 1/1/1 2/2/2 3/3/3
f 3/3/4 2/2/5 4/4/6
