# This file uses centimeters as units for non-parametric coordinates.

mtllib hus03_winning.mtl
g default
v -37.652397 131.749527 476.075500
v 9.813301 131.749527 453.217285
v 9.813301 112.731293 453.217285
v -37.652397 112.731293 476.075500
vt 0.000000 0.000000
vt 1.000000 0.000000
vt 1.000000 1.000000
vt 0.000000 1.000000
vn -0.433883 0.000000 -0.900970
vn -0.433883 0.000000 -0.900970
vn -0.433883 0.000000 -0.900970
vn -0.433883 0.000000 -0.900970
s 1
g win
usemtl initialShadingGroup
f 3/1/1 4/2/2 2/4/3
f 2/4/3 4/2/2 1/3/4
