# This file uses centimeters as units for non-parametric coordinates.

mtllib menuBgrd_menu.mtl
g default
v -1.500000 -1.000000 0.000000
v 1.500000 -1.000000 0.000000
v -1.500000 1.000000 -0.000000
v 1.500000 1.000000 -0.000000
vt 0.000000 0.000000
vt 1.000000 0.000000
vt 0.000000 1.000000
vt 1.000000 1.000000
vn 0.000000 0.000000 1.000000
vn 0.000000 0.000000 1.000000
vn 0.000000 0.000000 1.000000
vn 0.000000 0.000000 1.000000
vn 0.000000 0.000000 1.000000
vn 0.000000 0.000000 1.000000
s off
g menuBgrd_menu:pPlane1
usemtl menuBgrd_menu:lambert2SG
f 1/1/1 2/2/2 3/3/3
f 3/3/4 2/2/5 4/4/6
