# This file uses centimeters as units for non-parametric coordinates.

mtllib winning.mtl
g default
v -8.949812 16.709660 -36.738593
v -7.949812 16.709660 -36.738593
v -8.949812 17.709660 -36.738593
v -7.949812 17.709660 -36.738593
vt 0.000000 0.000000
vt 1.000000 0.000000
vt 0.000000 1.000000
vt 1.000000 1.000000
vn 0.000000 0.000000 1.000000
vn 0.000000 0.000000 1.000000
vn 0.000000 0.000000 1.000000
vn 0.000000 0.000000 1.000000
s 1
g winPlane
usemtl initialShadingGroup
f 1/1/1 2/2/2 3/3/3
f 3/3/3 2/2/2 4/4/4
